<svg id="visual" viewBox="0 0 2000 1000" width="2000" height="1000" xmlns="http://www.w3.org/2000/svg" xmlns:xlink="http://www.w3.org/1999/xlink" version="1.1"><path d="M0 271L27.8 274.3C55.7 277.7 111.3 284.3 166.8 344.3C222.3 404.3 277.7 517.7 333.2 531C388.7 544.3 444.3 457.7 500 426C555.7 394.3 611.3 417.7 666.8 387.7C722.3 357.7 777.7 274.3 833.2 297.7C888.7 321 944.3 451 1000 456C1055.7 461 1111.3 341 1166.8 317.7C1222.3 294.3 1277.7 367.7 1333.2 362.7C1388.7 357.7 1444.3 274.3 1500 287.7C1555.7 301 1611.3 411 1666.8 491C1722.3 571 1777.7 621 1833.2 581C1888.7 541 1944.3 411 1972.2 346L2000 281L2000 0L1972.2 0C1944.3 0 1888.7 0 1833.2 0C1777.7 0 1722.3 0 1666.8 0C1611.3 0 1555.7 0 1500 0C1444.3 0 1388.7 0 1333.2 0C1277.7 0 1222.3 0 1166.8 0C1111.3 0 1055.7 0 1000 0C944.3 0 888.7 0 833.2 0C777.7 0 722.3 0 666.8 0C611.3 0 555.7 0 500 0C444.3 0 388.7 0 333.2 0C277.7 0 222.3 0 166.8 0C111.3 0 55.7 0 27.8 0L0 0Z" fill="#100f27"></path><path d="M0 551L27.8 586C55.7 621 111.3 691 166.8 744.3C222.3 797.7 277.7 834.3 333.2 821C388.7 807.7 444.3 744.3 500 751C555.7 757.7 611.3 834.3 666.8 811C722.3 787.7 777.7 664.3 833.2 651C888.7 637.7 944.3 734.3 1000 781C1055.7 827.7 1111.3 824.3 1166.8 851C1222.3 877.7 1277.7 934.3 1333.2 891C1388.7 847.7 1444.3 704.3 1500 632.7C1555.7 561 1611.3 561 1666.8 616C1722.3 671 1777.7 781 1833.2 829.3C1888.7 877.7 1944.3 864.3 1972.2 857.7L2000 851L2000 279L1972.2 344C1944.3 409 1888.7 539 1833.2 579C1777.7 619 1722.3 569 1666.8 489C1611.3 409 1555.7 299 1500 285.7C1444.3 272.3 1388.7 355.7 1333.2 360.7C1277.7 365.7 1222.3 292.3 1166.8 315.7C1111.3 339 1055.7 459 1000 454C944.3 449 888.7 319 833.2 295.7C777.7 272.3 722.3 355.7 666.8 385.7C611.3 415.7 555.7 392.3 500 424C444.3 455.7 388.7 542.3 333.2 529C277.7 515.7 222.3 402.3 166.8 342.3C111.3 282.3 55.7 275.7 27.8 272.3L0 269Z" fill="#2d2b61"></path><path d="M0 1001L27.8 1001C55.7 1001 111.3 1001 166.8 1001C222.3 1001 277.7 1001 333.2 1001C388.7 1001 444.3 1001 500 1001C555.7 1001 611.3 1001 666.8 1001C722.3 1001 777.7 1001 833.2 1001C888.7 1001 944.3 1001 1000 1001C1055.7 1001 1111.3 1001 1166.8 1001C1222.3 1001 1277.7 1001 1333.2 1001C1388.7 1001 1444.3 1001 1500 1001C1555.7 1001 1611.3 1001 1666.8 1001C1722.3 1001 1777.7 1001 1833.2 1001C1888.7 1001 1944.3 1001 1972.2 1001L2000 1001L2000 849L1972.2 855.7C1944.3 862.3 1888.7 875.7 1833.2 827.3C1777.7 779 1722.3 669 1666.8 614C1611.3 559 1555.7 559 1500 630.7C1444.3 702.3 1388.7 845.7 1333.2 889C1277.7 932.3 1222.3 875.7 1166.8 849C1111.3 822.3 1055.7 825.7 1000 779C944.3 732.3 888.7 635.7 833.2 649C777.7 662.3 722.3 785.7 666.8 809C611.3 832.3 555.7 755.7 500 749C444.3 742.3 388.7 805.7 333.2 819C277.7 832.3 222.3 795.7 166.8 742.3C111.3 689 55.7 619 27.8 584L0 549Z" fill="#100f27"></path></svg>